<svg xmlns="http://www.w3.org/2000/svg" width="24" height="24" viewBox="0 0 24 24"><path fill="#ffffff" fill-rule="evenodd" d="M5.74 10.308c.088.092.138.145.19.197.792.795 1.577 1.597 2.379 2.382.285.28.394.59.337.974-.113.76-.218 1.52-.325 2.28l-.204 1.48c.116-.055.19-.089.263-.125 1.01-.503 2.022-1 3.027-1.51.348-.178.67-.181 1.022-.008 1.04.514 2.089 1.013 3.134 1.517.087.042.176.082.282.131 0-.07.005-.11-.001-.15-.171-1.113-.333-2.228-.52-3.34-.074-.437.009-.788.336-1.114.817-.816 1.612-1.654 2.415-2.484.06-.061.113-.128.187-.211-1.24-.203-2.438-.406-3.638-.592-.382-.06-.63-.251-.805-.581-.54-1.021-1.09-2.038-1.637-3.056-.049-.09-.101-.178-.165-.29-.05.089-.087.151-.12.216-.531 1.017-1.064 2.032-1.59 3.052-.158.306-.389.495-.74.553-.64.107-1.278.225-1.917.339l-1.91.34m11.265 9.79c-.162-.057-.331-.1-.485-.174a667.244 667.244 0 01-4.37-2.107.457.457 0 00-.457.007c-1.383.7-2.773 1.387-4.156 2.087-.362.183-.714.237-1.058-.009-.338-.242-.41-.577-.352-.978.233-1.591.447-3.185.675-4.777a.406.406 0 00-.133-.388c-1.107-1.1-2.204-2.207-3.31-3.306-.285-.284-.443-.594-.313-.992.13-.395.43-.566.836-.635 1.583-.269 3.163-.554 4.745-.828.175-.03.288-.093.375-.263.709-1.385 1.434-2.763 2.147-4.146.18-.348.427-.583.843-.589.428-.006.682.232.87.586.747 1.404 1.508 2.8 2.25 4.206.1.19.224.269.43.301 1.538.242 3.073.497 4.61.74.379.06.658.237.789.593.136.366.03.686-.24.965-1.138 1.172-2.271 2.348-3.412 3.517a.411.411 0 00-.131.39c.245 1.556.485 3.114.73 4.67.093.6-.297 1.096-.883 1.13"/></svg>
