<svg xmlns="http://www.w3.org/2000/svg" width="24" height="24"><path fill="#FFF" fill-rule="evenodd" d="M2.985 18.11c.05-.011.05-.051.05-.11l3.18-5.18c.052-.081.11-5.231.11-5.231 0-3.078 2.767-5.586 6.165-5.589 3.397.003 6.165 2.511 6.165 5.589 0 0 .06 5.15.11 5.231l3.18 5.18c0 .059 0 .099.05.11-.073.014-18.937.008-19.01 0m9.505 3.88a2.996 2.996 0 01-2.755-2.79h5.51a2.996 2.996 0 01-2.755 2.79m10.45-4.182c-.003-.01-.003-.02-.006-.031-.008-.026-.02-.051-.03-.077-.023-.065-.044-.13-.079-.191l-3.159-5.089V7.61A6.87 6.87 0 0012.996 1h-1.01a6.87 6.87 0 00-6.67 6.61v4.81l-3.16 5.089c-.036.062-.057.127-.079.192-.01.025-.024.05-.03.076-.004.011-.004.021-.007.032-.073.272-.048.565.085.821.236.368.654.579 1.09.549h5.38A4.001 4.001 0 0012.425 23c.022-.001.043-.008.065-.009.022.001.043.008.065.009a4 4 0 003.83-3.821h5.38c.437.03.854-.181 1.09-.549.134-.257.158-.55.085-.822"/></svg>