<svg xmlns="http://www.w3.org/2000/svg" width="24" height="24"><path fill="#FFF" fill-rule="evenodd" d="M18.346 8.032c.963.138 1.652.977 1.653 1.963L20 13.494v6.437c-.002 1.187-.87 2.055-2.06 2.055H6.06c-1.19 0-2.059-.867-2.06-2.054v-9.858c.001-1.228.86-2.083 2.09-2.085.3 0 .6-.003.9 0 .57.008 1.008.443 1.01.999a.998.998 0 01-1.007 1c-.32.004-.64 0-.983 0v9.985h11.978V9.99c-.21 0-.426.003-.643-.001-.186-.004-.376.008-.556-.029a.985.985 0 01-.785-1.073.992.992 0 01.986-.895c.453 0 .911-.024 1.356.04zm-5.583-5.68c.92.916 1.84 1.833 2.756 2.753.287.288.385.636.258 1.026-.127.389-.406.619-.809.682-.34.054-.629-.062-.87-.303l-.533-.534L13 5.41v8.54c0 .425-.188.746-.572.93-.369.179-.729.131-1.05-.12-.265-.205-.379-.486-.379-.82l.002-2.316V5.409c-.396.395-.75.753-1.107 1.107-.247.245-.543.356-.892.292a.954.954 0 01-.776-.668c-.126-.372-.044-.712.222-.998.217-.234.45-.454.675-.68.702-.701 1.404-1.403 2.107-2.103.477-.476 1.06-.479 1.533-.007z"/></svg>