<svg xmlns="http://www.w3.org/2000/svg" viewBox="0 0 24 24"><path fill="#FFF" fill-rule="evenodd" d="M17.021 7.109c0 2.729-2.252 4.951-5.021 4.951S6.979 9.838 6.979 7.109c0-2.729 2.252-4.951 5.021-4.951s5.021 2.222 5.021 4.951m-2.067 5.361c2.004-1.074 3.239-3.108 3.239-5.361C18.193 3.74 15.415 1 12 1 8.585 1 5.807 3.74 5.807 7.109c0 2.253 1.235 4.287 3.239 5.361C4.296 13.778 1 18.037 1 22.909V23h1.173v-.091c0-5.343 4.408-9.691 9.827-9.691s9.827 4.348 9.827 9.691V23H23v-.091c0-4.872-3.296-9.131-8.046-10.439"/></svg>