<svg xmlns="http://www.w3.org/2000/svg" width="24" height="24"><path fill="#FFF" fill-rule="evenodd" d="M20.3 2c1.078 0 1.697.746 1.698 2.063.003 3.913.003 7.827 0 11.74-.001 1.315-.621 2.062-1.7 2.063-1.823.001-3.646.006-5.47-.007-.239-.002-.365.092-.485.336-.55 1.123-1.118 2.233-1.681 3.346-.308.608-.687.612-.993.01-.575-1.136-1.151-2.27-1.716-3.414-.103-.208-.216-.277-.413-.276-1.954.009-3.908.006-5.862.005-1.041-.001-1.673-.751-1.675-2.012-.004-3.94-.004-7.88 0-11.82.002-1.29.628-2.033 1.69-2.033H20.3zm-.982 2H4.68c-.536 0-.68.175-.68.831v10.212c0 .625.154.81.67.81 1.799 0 3.599.01 5.398-.008.34-.003.55.126.723.482.43.892.89 1.763 1.352 2.673.47-.921.93-1.804 1.37-2.703.161-.33.36-.454.678-.451 1.713.015 3.426.007 5.14.007.515 0 .667-.183.667-.812V4.83c0-.655-.144-.829-.681-.829zM17 11.025a1 1 0 110 2H7a1 1 0 010-2h10zm0-4a1 1 0 010 2H7a1 1 0 110-2h10z"/></svg>