<svg xmlns="http://www.w3.org/2000/svg" width="24" height="24" viewBox="0 0 24 24"><path fill="#D21762" fill-rule="evenodd" d="M17.005 20.098c-.162-.057-.331-.1-.485-.174a667.244 667.244 0 01-4.37-2.107.457.457 0 00-.457.007c-1.383.7-2.773 1.387-4.156 2.087-.362.183-.714.237-1.058-.009-.338-.242-.41-.577-.352-.978.233-1.591.447-3.185.675-4.777a.406.406 0 00-.133-.388c-1.107-1.1-2.204-2.207-3.31-3.306-.285-.284-.443-.594-.313-.992.13-.395.43-.566.836-.635 1.583-.269 3.163-.554 4.745-.828.175-.03.288-.093.375-.263.709-1.385 1.434-2.763 2.147-4.146.18-.348.427-.583.843-.589.428-.006.682.232.87.586.747 1.404 1.508 2.8 2.25 4.206.1.19.224.269.43.301 1.538.242 3.073.497 4.61.74.379.06.658.237.789.593.136.366.03.686-.24.965-1.138 1.172-2.271 2.348-3.412 3.517a.411.411 0 00-.131.39c.245 1.556.485 3.114.73 4.67.093.6-.297 1.096-.883 1.13"/></svg>
